<svg width="32" height="32" viewBox="0 0 32 32" fill="none" xmlns="http://www.w3.org/2000/svg">
<g clip-path="url(#clip0_616_2)">
<path d="M16.0006 31.3606C24.4837 31.3606 31.3606 24.4837 31.3606 16.0006C31.3606 7.51753 24.4837 0.640625 16.0006 0.640625C7.51753 0.640625 0.640625 7.51753 0.640625 16.0006C0.640625 24.4837 7.51753 31.3606 16.0006 31.3606Z" fill="#FFD6E0"/>
<path d="M12.8037 13.7598C13.3339 13.7598 13.7637 13.33 13.7637 12.7998C13.7637 12.2697 13.3339 11.8398 12.8037 11.8398C12.2736 11.8398 11.8438 12.2697 11.8438 12.7998C11.8438 13.33 12.2736 13.7598 12.8037 13.7598Z" fill="#333333"/>
<path d="M19.2022 13.7598C19.7324 13.7598 20.1622 13.33 20.1622 12.7998C20.1622 12.2697 19.7324 11.8398 19.2022 11.8398C18.672 11.8398 18.2422 12.2697 18.2422 12.7998C18.2422 13.33 18.672 13.7598 19.2022 13.7598Z" fill="#333333"/>
<path d="M12.7969 19.1992C14.9302 20.9059 17.0635 20.9059 19.1969 19.1992" stroke="#333333" stroke-width="0.64" stroke-linecap="round"/>
<path opacity="0.6" d="M10.2409 17.2787C10.9479 17.2787 11.5209 16.7057 11.5209 15.9987C11.5209 15.2918 10.9479 14.7188 10.2409 14.7188C9.53401 14.7188 8.96094 15.2918 8.96094 15.9987C8.96094 16.7057 9.53401 17.2787 10.2409 17.2787Z" fill="#FF8FAB"/>
<path opacity="0.6" d="M21.7566 17.2787C22.4635 17.2787 23.0366 16.7057 23.0366 15.9987C23.0366 15.2918 22.4635 14.7188 21.7566 14.7188C21.0496 14.7188 20.4766 15.2918 20.4766 15.9987C20.4766 16.7057 21.0496 17.2787 21.7566 17.2787Z" fill="#FF8FAB"/>
</g>
<defs>
<clipPath id="clip0_616_2">
<rect width="32" height="32" fill="white"/>
</clipPath>
</defs>
</svg>
